<?xml version="1.0" encoding="UTF-8" standalone="no"?>
<svg
   xmlns:dc="http://purl.org/dc/elements/1.1/"
   xmlns:cc="http://creativecommons.org/ns#"
   xmlns:rdf="http://www.w3.org/1999/02/22-rdf-syntax-ns#"
   xmlns:svg="http://www.w3.org/2000/svg"
   xmlns="http://www.w3.org/2000/svg"
   viewBox="0 0 266.66666 266.66666"
   height="266.66666"
   width="266.66666"
   xml:space="preserve"
   id="svg2"
   version="1.1"><metadata
     id="metadata8"><rdf:RDF><cc:Work
         rdf:about=""><dc:format>image/svg+xml</dc:format><dc:type
           rdf:resource="http://purl.org/dc/dcmitype/StillImage" /></cc:Work></rdf:RDF></metadata><defs
     id="defs6" /><g
     transform="matrix(1.3333333,0,0,-1.3333333,0,266.66667)"
     id="g10"><path
       id="path12"
       style="fill:#045ba9;fill-opacity:1;fill-rule:evenodd;stroke:none"
       d="m 182.049,77.6951 h -4.195 v 0.3867 h 3.803 v 4.1549 h 0.392 z m -43.962,0.3867 h 3.929 v -0.3867 h -4.32 v 4.5416 h 0.391 z m 3.929,43.8362 h -3.929 v -4.421 h -0.391 v 4.808 h 4.32 z m 40.164,-4.421 h -0.392 v 4.291 h -3.934 v 0.386 h 4.326 z" /><path
       id="path14"
       style="fill:#231f20;fill-opacity:1;fill-rule:evenodd;stroke:none"
       d="m 159.171,117.448 h 1.5342 v 1.5342 h -1.5342 z m -6.136,-1.535 h 1.5342 v 1.5342 h -1.5342 z m 10.738,-4.601 h 1.5342 v 1.5333 h -1.5342 z m -9.204,-3.068 h 1.5342 v 1.5342 h -1.5342 z m 3.068,0 h 1.5333 v 1.5342 h -1.5333 z m 15.339,-3.068 h 1.5342 v 1.5342 h -1.5342 z m -16.872,0 h 1.5333 v 1.5342 h -1.5333 z m 4.6,0 v 1.534 h 1.535 v 3.068 h 1.534 v 1.533 h -3.069 v -3.067 h -1.533 v -3.068 z m -16.872,-1.534 h 1.5342 v 1.5342 h -1.5342 z m 6.135,0 h 1.5342 v 1.5342 h -1.5342 z m 15.339,0 v 1.534 h 1.535 v 1.534 h -1.535 v 3.068 h -1.533 v -6.136 z m -1.533,-3.067 h 1.5342 v 1.5333 h -1.5342 z m -1.534,-3.0683 v 1.5337 h -3.068 v 3.0676 h 1.533 v -1.533 h 1.535 v 1.533 h 1.534 v 1.534 h -1.534 v 1.534 h -1.535 v -1.534 h -1.533 v 1.534 h -1.534 v -3.068 h -1.533 v 3.068 h -1.535 v -1.534 h -1.534 v -1.534 h 1.534 v -1.533 h 3.068 v -1.5346 h -1.533 v -1.5337 z m 1.534,-3e-4 h 1.5342 v 1.5342 h -1.5342 z m 6.135,-1.5338 h 1.5342 v 1.5342 h -1.5342 z m -29.145,-3.068 h 1.535 v 6.1358 h -1.535 z m 32.213,1.5342 v 4.6016 h -1.533 v 1.5346 h -1.535 v -1.5346 h -1.534 v 1.5346 h 1.534 v 1.533 h -1.534 v 1.534 h -3.068 v -1.534 h 1.535 v -4.6013 h 1.533 v -1.5341 h -1.533 v -1.5338 z m 0,-1.5334 h 1.5342 v 1.5333 h -1.5342 z m -16.872,-1.5341 v 4.6013 h -1.535 v 1.5341 h -1.534 v 1.5337 h -3.068 v -1.5337 h 1.535 v -1.5341 h -3.068 v -1.5338 h 6.135 v -3.0675 z m 7.669,0 v 1.5338 h 1.533 v 3.0675 h -1.533 v 1.5341 h -1.534 v -1.5341 h -3.068 v -3.0675 h 3.068 v -1.5338 z m 4.601,-1.5342 h 1.5342 v 1.5342 h -1.5342 z m -4.601,0 h 1.5342 v 1.5342 h -1.5342 z m -1.534,-1.5342 h 1.5342 v 1.5342 h -1.5342 z m 9.204,0 v 4.6017 h -4.602 v -4.6017 z m 3.067,0 h 1.5333 v 1.5342 H 174.51 Z m -6.136,-4.6013 h 1.5342 v 1.5333 h -1.5342 z m 6.136,0 v 3.0675 h -1.534 V 85.235 h -1.533 v -1.5334 z m -16.873,-3.0678 h 1.534 v 3.0675 h 1.533 v 1.5337 h -3.067 z m 19.941,1.534 v 3.0672 h -1.535 v -1.5337 h -1.533 v -1.5335 z m 1.533,-1.534 h -10.737 v 1.534 h -6.135 v 1.5338 h 3.067 v 3.0675 h -3.067 v 1.5338 h -1.535 v -1.5338 h -1.533 v 3.068 h 1.533 v 1.5342 h -1.533 v 1.5333 h -1.534 v -1.5333 h -1.533 v -3.0684 h 1.533 v -1.5338 h -1.533 v -6.1353 h -3.069 v 7.6691 h 1.534 v 1.5342 h -1.534 v 3.0675 H 146.9 v 1.5342 h -1.533 v 3.0679 h -1.535 v 1.5337 h 3.068 v -3.0678 h 1.534 v 3.0678 h 1.533 v 1.5346 h 1.535 v 1.533 h -1.535 v 1.534 h -1.533 v -3.067 H 146.9 v 1.533 h -1.533 v -1.533 h -1.535 v 1.533 h -1.534 v 1.534 h -1.535 v 3.068 h 7.671 v -1.534 h 1.533 v 1.534 h 4.602 v 1.534 h -1.534 v 3.068 h 1.534 v 1.533 h -1.534 v 1.534 h 4.602 v -1.534 h -1.533 v -3.067 h 1.533 v 1.534 h 3.067 v 1.533 h -1.533 v 3.068 h 1.533 v -1.534 h 1.535 v 1.534 h 1.534 v 1.535 h 1.533 v 1.533 h 1.535 v -1.533 h -1.535 v -3.069 h 1.535 v -3.068 h -1.535 v -1.533 h 1.535 v -3.068 h 1.533 v -3.068 h 1.534 v 3.068 h 1.535 v -4.602 h 1.533 v 1.534 h 1.534 v -1.534 h -1.534 v -3.0676 h 1.534 v 1.5346 h 3.068 v 1.533 h -1.535 v 4.602 h 1.535 v -3.068 h 1.533 v -4.6016 h -1.533 v -1.5337 h 1.533 v -3.0679 h -1.533 v 1.5338 h -1.535 v 3.0678 h -1.533 v -4.6016 h 1.533 v -3.0675 h 3.068 z m -21.474,35.2792 v 3.068 h -1.533 v -3.068 z" /><path
       id="path16"
       style="fill:#005aaa;fill-opacity:1;fill-rule:evenodd;stroke:none"
       d="m 179.111,108.244 v 10.738 h -10.737 v -10.738 z m -9.203,9.204 h 7.67 v -7.67 h -7.67 z" /><path
       id="path18"
       style="fill:#005aaa;fill-opacity:1;fill-rule:evenodd;stroke:none"
       d="m 176.045,111.312 v 4.602 h -4.604 v -4.602 z" /><path
       id="path20"
       style="fill:#005aaa;fill-opacity:1;fill-rule:evenodd;stroke:none"
       d="m 149.967,117.448 v -7.67 h -7.669 v 7.67 z m 1.535,-9.204 v 10.738 h -10.737 v -10.738 z" /><path
       id="path22"
       style="fill:#005aaa;fill-opacity:1;fill-rule:evenodd;stroke:none"
       d="m 148.434,111.312 v 4.602 h -4.602 v -4.602 z" /><path
       id="path24"
       style="fill:#ed1c24;fill-opacity:1;fill-rule:evenodd;stroke:none"
       d="m 142.298,82.1677 v 7.6697 h 7.669 v -7.6697 z m 9.204,9.2035 H 140.763 V 80.6335 h 10.739 z" /><path
       id="path26"
       style="fill:#ed1c24;fill-opacity:1;fill-rule:evenodd;stroke:none"
       d="m 148.434,83.7013 v 4.602 h -4.602 v -4.602 z" /><path
       id="path28"
       style="fill:#009edb;fill-opacity:1;fill-rule:nonzero;stroke:none"
       d="m 32.9515,85.6263 c 0.605,0 1.0553,0.1041 1.3511,0.3129 0.296,0.2083 0.4894,0.5283 0.5812,0.9595 0.0551,0.2702 0.0243,0.4997 -0.0927,0.6877 -0.117,0.188 -0.3795,0.4171 -0.7875,0.6877 l -1.6162,1.114 c -0.3668,0.2569 -0.6453,0.519 -0.8355,0.7874 -0.1902,0.2682 -0.3028,0.5491 -0.3368,0.8426 -0.0344,0.2934 -0.0149,0.6095 0.0583,0.9488 0.1744,0.8298 0.5835,1.4831 1.2275,1.9601 0.6444,0.4767 1.5646,0.715 2.7611,0.715 0.4679,0 0.915,-0.0572 1.3413,-0.1717 0.426,-0.1147 0.7468,-0.2404 0.9627,-0.3782 0.0918,-0.0596 0.158,-0.116 0.1995,-0.1686 0.041,-0.0529 0.0525,-0.1226 0.0344,-0.2096 l -0.2065,-0.956 c -0.0504,-0.2291 -0.1832,-0.3006 -0.399,-0.2133 -0.2335,0.0963 -0.5787,0.1904 -1.0345,0.2822 -0.4566,0.0912 -0.8701,0.1376 -1.2418,0.1376 -0.9854,0 -1.5468,-0.3279 -1.6846,-0.9837 -0.0507,-0.2291 -0.015,-0.422 0.1064,-0.5779 0.1214,-0.1557 0.3818,-0.3711 0.7808,-0.6461 l 1.4786,-1.0042 c 0.4308,-0.2934 0.7538,-0.5877 0.9696,-0.8834 0.2155,-0.2958 0.3448,-0.5985 0.3884,-0.908 0.0432,-0.3095 0.0243,-0.6638 -0.0586,-1.0624 -0.11,-0.5182 -0.3298,-0.9989 -0.6599,-1.441 -0.3302,-0.4423 -0.7954,-0.8032 -1.3961,-1.0831 -0.6007,-0.2799 -1.332,-0.4193 -2.1939,-0.4193 -0.5779,0 -1.0925,0.0662 -1.544,0.1995 -0.4516,0.1328 -0.7596,0.2541 -0.9246,0.3646 -0.1148,0.0777 -0.1872,0.1381 -0.2167,0.1817 -0.0301,0.0438 -0.0359,0.1091 -0.0173,0.1965 l 0.2062,0.9556 c 0.0459,0.2153 0.1787,0.2864 0.399,0.2131 0.8526,-0.2935 1.6528,-0.44 2.4001,-0.44" /><path
       id="path30"
       style="fill:#009edb;fill-opacity:1;fill-rule:nonzero;stroke:none"
       d="m 40.9564,85.5301 c 0.5274,0 1.1554,0.1078 1.8847,0.3231 0.2105,0.0551 0.293,-0.0208 0.2476,-0.2269 l -0.1859,-0.9009 c -0.0234,-0.0872 -0.0617,-0.1571 -0.117,-0.2095 -0.0552,-0.0531 -0.1421,-0.1047 -0.2612,-0.1549 -0.5411,-0.2706 -1.1741,-0.4057 -1.8984,-0.4057 -0.628,0 -1.1576,0.1178 -1.5884,0.354 -0.4308,0.2361 -0.7301,0.6099 -0.8974,1.1211 -0.1677,0.511 -0.1685,1.1586 -0.0035,1.9428 l 0.2821,1.3131 c 0.1602,0.7657 0.4321,1.4053 0.8148,1.919 0.3826,0.5135 0.8425,0.8917 1.3788,1.1348 0.5361,0.2428 1.1188,0.3646 1.7468,0.3646 0.7243,0 1.2999,-0.1355 1.7263,-0.406 0.0962,-0.0503 0.1616,-0.102 0.1959,-0.1546 0.0341,-0.0529 0.0424,-0.1226 0.0239,-0.21 L 44.113,90.4332 c -0.0459,-0.2061 -0.1607,-0.282 -0.3438,-0.2268 -0.289,0.1007 -0.5526,0.1801 -0.791,0.237 -0.2383,0.0574 -0.534,0.086 -0.8871,0.086 -0.9489,0 -1.5544,-0.6143 -1.8153,-1.8431 l -0.2821,-1.3131 c -0.1377,-0.6652 -0.1081,-1.1383 0.0892,-1.4203 0.1972,-0.282 0.4886,-0.4228 0.8735,-0.4228" /><path
       id="path32"
       style="fill:#009edb;fill-opacity:1;fill-rule:nonzero;stroke:none"
       d="m 48.473,85.475 0.4401,2.0838 h -0.9899 c -0.4264,0 -0.7499,-0.0376 -0.9697,-0.1135 -0.2203,-0.076 -0.3796,-0.1925 -0.4781,-0.3509 -0.0988,-0.1581 -0.1777,-0.3792 -0.2374,-0.6634 l -0.0207,-0.0825 c -0.0547,-0.2661 -0.0547,-0.4691 0,-0.6087 0.0551,-0.1398 0.1764,-0.2383 0.3646,-0.2957 0.188,-0.0574 0.4792,-0.086 0.8734,-0.086 0.399,0 0.7383,0.0389 1.0177,0.1169 m -0.1649,5.0819 c -0.738,0 -1.5132,-0.1213 -2.3244,-0.3641 -0.2108,-0.0552 -0.2935,0.0207 -0.2476,0.2268 l 0.1789,0.8598 c 0.018,0.087 0.0559,0.1581 0.1133,0.2133 0.0574,0.0546 0.1456,0.1055 0.2649,0.1513 0.3115,0.1236 0.6899,0.2313 1.1348,0.3231 0.4443,0.0914 0.9189,0.1376 1.4234,0.1376 0.605,0 1.1015,-0.0988 1.4887,-0.2957 0.3875,-0.1973 0.6531,-0.5 0.798,-0.9078 0.1443,-0.4082 0.1544,-0.9035 0.0308,-1.4856 l -1.0243,-4.8003 c -0.0186,-0.1007 -0.0441,-0.1717 -0.0759,-0.2132 -0.0323,-0.0411 -0.094,-0.0732 -0.1859,-0.0963 -0.4401,-0.1147 -0.862,-0.2017 -1.2654,-0.2613 -0.4035,-0.0595 -0.8894,-0.0891 -1.4578,-0.0891 -0.7702,0 -1.3824,0.0798 -1.8361,0.2406 -0.4543,0.1602 -0.7613,0.4135 -0.9217,0.7599 -0.1606,0.3461 -0.1812,0.8012 -0.0617,1.3648 l 0.0136,0.0688 c 0.0919,0.4172 0.227,0.7728 0.4057,1.066 0.1787,0.2935 0.4206,0.5411 0.7256,0.7428 0.305,0.2016 0.6776,0.3517 1.1175,0.4506 0.4401,0.0983 0.9698,0.1479 1.5886,0.1479 h 0.9904 l 0.1306,0.6188 c 0.0917,0.44 0.0574,0.7406 -0.1033,0.9007 -0.1606,0.1607 -0.4608,0.2406 -0.9007,0.2406" /><path
       id="path34"
       style="fill:#009edb;fill-opacity:1;fill-rule:nonzero;stroke:none"
       d="m 58.1765,84.3608 c -0.0137,-0.0732 -0.0561,-0.1406 -0.1272,-0.203 -0.071,-0.0617 -0.1434,-0.0927 -0.2166,-0.0927 h -1.2999 c -0.0782,0 -0.1363,0.031 -0.1752,0.0927 -0.0388,0.0624 -0.0516,0.1298 -0.0379,0.203 l 0.9905,4.6489 c 0.078,0.3713 0.097,0.6671 0.0586,0.8872 -0.0393,0.2198 -0.1506,0.3804 -0.3337,0.4816 -0.1836,0.1006 -0.4542,0.1514 -0.8116,0.1514 -0.4308,0 -0.9035,-0.0508 -1.4169,-0.1514 l -1.279,-6.0177 c -0.0137,-0.0825 -0.0538,-0.1526 -0.1205,-0.2095 -0.0662,-0.0574 -0.1408,-0.0862 -0.2233,-0.0862 h -1.2929 c -0.0824,0 -0.1433,0.031 -0.1822,0.0927 -0.0388,0.0624 -0.0516,0.1298 -0.038,0.203 l 1.4994,7.042 c 0.0273,0.1378 0.1421,0.2318 0.3438,0.2822 0.4952,0.1283 1.02,0.2303 1.5748,0.3062 0.5547,0.0755 1.0637,0.1135 1.5268,0.1135 1.1047,0 1.8638,-0.2441 2.276,-0.7327 0.4131,-0.4882 0.5068,-1.2711 0.2825,-2.3485 z" /><path
       id="path36"
       style="fill:#009edb;fill-opacity:1;fill-rule:nonzero;stroke:none"
       d="m 67.8527,84.3058 c -0.0278,-0.1421 -0.1333,-0.2268 -0.3165,-0.2543 -0.4083,-0.0644 -0.7837,-0.0962 -1.1276,-0.0962 -0.5596,0 -0.9861,0.0561 -1.2796,0.1681 -0.293,0.1126 -0.4811,0.3289 -0.5636,0.6503 -0.0825,0.3208 -0.0574,0.793 0.0754,1.4168 l 0.9358,4.4215 -1.1215,0.1995 c -0.1832,0.0323 -0.2586,0.1263 -0.2265,0.282 l 0.1373,0.633 c 0.0138,0.0777 0.0526,0.1444 0.117,0.199 0.0644,0.0552 0.1376,0.0825 0.2203,0.0825 h 1.1691 l 0.2472,1.1556 c 0.0322,0.1558 0.147,0.2498 0.3443,0.2821 l 1.3545,0.2268 H 67.88 c 0.1471,0 0.204,-0.0711 0.1722,-0.2132 L 67.7424,92.008 h 1.4238 c 0.0869,0 0.1514,-0.0251 0.1924,-0.0754 0.0416,-0.0502 0.0526,-0.1191 0.0344,-0.2061 L 69.2143,90.894 C 69.1958,90.816 69.1534,90.7497 69.0872,90.6945 69.0206,90.6399 68.9481,90.612 68.8705,90.612 h -1.4238 l -0.9353,-4.4215 c -0.0732,-0.3487 -0.0905,-0.5664 -0.0511,-0.6537 0.0388,-0.0869 0.1817,-0.1307 0.4293,-0.1307 h 0.9014 c 0.1968,0 0.2815,-0.071 0.2542,-0.2131 z" /><path
       id="path38"
       style="fill:#009edb;fill-opacity:1;fill-rule:nonzero;stroke:none"
       d="m 74.2209,87.4624 0.2414,1.1347 c 0.1231,0.587 0.0927,1.0509 -0.0943,1.3927 -0.1854,0.3416 -0.5227,0.5123 -1.0134,0.5123 -0.4861,0 -0.8954,-0.1707 -1.228,-0.5123 -0.3325,-0.3418 -0.5601,-0.8057 -0.6842,-1.3927 l -0.2405,-1.1347 c -0.1241,-0.587 -0.0918,-1.0509 0.0962,-1.3925 0.188,-0.3416 0.5225,-0.5124 1.004,-0.5124 0.4859,0 0.8958,0.1708 1.2315,0.5124 0.3341,0.3416 0.5627,0.8055 0.6873,1.3925 m 1.8575,0 c -0.1423,-0.6695 -0.4012,-1.2719 -0.7737,-1.8087 -0.374,-0.5363 -0.844,-0.9534 -1.4099,-1.2518 -0.5674,-0.2978 -1.21,-0.4466 -1.9298,-0.4466 -0.7105,0 -1.2892,0.1488 -1.7363,0.4466 -0.4471,0.2984 -0.7415,0.7155 -0.8836,1.2518 -0.1422,0.5368 -0.1422,1.1392 0,1.8087 l 0.2405,1.1347 c 0.1421,0.6697 0.399,1.2724 0.7707,1.8087 0.3711,0.5368 0.8428,0.9534 1.4162,1.2518 0.5729,0.298 1.2144,0.4471 1.9257,0.4471 0.7194,0 1.2996,-0.1491 1.7392,-0.4471 0.4412,-0.2984 0.7337,-0.715 0.8776,-1.2518 0.1438,-0.5363 0.1454,-1.139 0.0032,-1.8087 z" /><path
       id="path40"
       style="fill:#009edb;fill-opacity:1;fill-rule:nonzero;stroke:none"
       d="m 87.2055,91.2655 0.0272,0.1241 c 0.1231,0.5866 0.0415,1.0059 -0.2446,1.2583 -0.2861,0.2521 -0.7913,0.3782 -1.5154,0.3782 -0.4555,0 -0.8775,-0.0206 -1.266,-0.0617 l -0.7161,-3.3492 c 0.4492,-0.0278 0.8648,-0.0414 1.2452,-0.0414 0.5052,0 0.9224,0.0609 1.2548,0.1823 0.3325,0.1213 0.5979,0.3059 0.7945,0.5535 0.1966,0.2476 0.3373,0.5662 0.4204,0.9559 m 1.9454,0 c -0.243,-1.1599 -0.7961,-2.0002 -1.6577,-2.5202 -0.8616,-0.5208 -1.8958,-0.7807 -3.101,-0.7807 -0.0736,0 -0.235,0.0056 -0.4844,0.0171 -0.251,0.0115 -0.4124,0.0195 -0.4891,0.0238 -0.0752,0.005 -0.1631,0.0093 -0.2638,0.0143 l -0.7784,-3.6727 c -0.0176,-0.0825 -0.0592,-0.1501 -0.1231,-0.203 -0.064,-0.0526 -0.1327,-0.079 -0.2062,-0.079 h -1.4099 c -0.0687,0 -0.1279,0.0273 -0.1758,0.0825 -0.048,0.0551 -0.0624,0.1213 -0.0448,0.1995 l 2.0573,9.6897 c 0.0271,0.1333 0.0847,0.2305 0.1742,0.2927 0.0895,0.0619 0.2126,0.1042 0.3692,0.1271 0.7961,0.1235 1.7296,0.1854 2.799,0.1854 1.2101,0 2.1356,-0.2534 2.775,-0.7596 0.6394,-0.5067 0.8344,-1.3378 0.5866,-2.4928 z" /><path
       id="path42"
       style="fill:#009edb;fill-opacity:1;fill-rule:nonzero;stroke:none"
       d="m 92.383,85.475 0.4412,2.0838 h -0.9911 c -0.4268,0 -0.7497,-0.0376 -0.9686,-0.1135 -0.2206,-0.076 -0.3805,-0.1925 -0.478,-0.3509 -0.0991,-0.1581 -0.179,-0.3792 -0.2382,-0.6634 l -0.0208,-0.0825 c -0.0543,-0.2661 -0.0543,-0.4691 0,-0.6087 0.056,-0.1398 0.1759,-0.2383 0.3645,-0.2957 0.1886,-0.0574 0.4795,-0.086 0.8744,-0.086 0.398,0 0.7369,0.0389 1.0166,0.1169 m -0.1646,5.0819 c -0.7385,0 -1.5138,-0.1213 -2.3242,-0.3641 -0.211,-0.0552 -0.2942,0.0207 -0.2478,0.2268 l 0.179,0.8598 c 0.0176,0.087 0.056,0.1581 0.1135,0.2133 0.0576,0.0546 0.1455,0.1055 0.2638,0.1513 0.3117,0.1236 0.6905,0.2313 1.1349,0.3231 0.4444,0.0914 0.9191,0.1376 1.4243,0.1376 0.6042,0 1.1013,-0.0988 1.4882,-0.2957 0.3884,-0.1973 0.6537,-0.5 0.7976,-0.9078 0.1455,-0.4082 0.1551,-0.9035 0.032,-1.4856 L 94.055,84.6153 c -0.0191,-0.1007 -0.0447,-0.1717 -0.0767,-0.2132 -0.032,-0.0411 -0.0927,-0.0732 -0.1854,-0.0963 -0.4396,-0.1147 -0.8616,-0.2017 -1.2644,-0.2613 -0.4044,-0.0595 -0.8904,-0.0891 -1.4578,-0.0891 -0.7705,0 -1.3827,0.0798 -1.8367,0.2406 -0.454,0.1602 -0.7609,0.4135 -0.9223,0.7599 -0.1599,0.3461 -0.1807,0.8012 -0.0608,1.3648 l 0.0128,0.0688 c 0.0927,0.4172 0.227,0.7728 0.406,1.066 0.1791,0.2935 0.4204,0.5411 0.7257,0.7428 0.3053,0.2016 0.6778,0.3517 1.1174,0.4506 0.4396,0.0983 0.9703,0.1479 1.5889,0.1479 h 0.9895 l 0.131,0.6188 c 0.0927,0.44 0.0576,0.7406 -0.1023,0.9007 -0.1614,0.1607 -0.4619,0.2406 -0.9015,0.2406" /><path
       id="path44"
       style="fill:#009edb;fill-opacity:1;fill-rule:nonzero;stroke:none"
       d="m 103.862,91.7676 c -0.01,-0.0366 -0.021,-0.0644 -0.035,-0.0825 L 99.7217,83.4597 C 99.45,82.9099 99.1814,82.4791 98.9129,82.167 98.6443,81.8553 98.3118,81.6237 97.9154,81.4727 97.519,81.3213 97.0091,81.2454 96.3856,81.2454 c -0.2381,0 -0.4987,0.0185 -0.7848,0.0551 -0.2829,0.0368 -0.5051,0.0804 -0.6666,0.1308 -0.187,0.0506 -0.2701,0.1306 -0.2478,0.2405 l 0.1935,0.9013 c 0.0144,0.0684 0.0543,0.128 0.1199,0.1787 0.0671,0.0503 0.139,0.0754 0.2173,0.0754 h 0.0272 c 0.1231,-0.0043 0.3821,-0.0208 0.7769,-0.0481 0.3948,-0.0273 0.657,-0.0411 0.7912,-0.0411 0.2062,0 0.3853,0.0253 0.5355,0.0756 0.1519,0.0502 0.2878,0.1407 0.4093,0.2715 0.1214,0.1306 0.2429,0.3177 0.3612,0.5604 l 0.1998,0.4198 H 98.112 c -0.1614,0 -0.3085,0.0252 -0.4444,0.0754 -0.1342,0.0504 -0.2509,0.1616 -0.35,0.3338 -0.0991,0.1717 -0.1615,0.425 -0.1887,0.7599 l -0.4683,6.4507 c -0.0048,0.0274 -0.0016,0.0595 0.008,0.0962 0.0304,0.1514 0.1375,0.2269 0.3149,0.2269 h 1.4242 c 0.064,0 0.1151,-0.0253 0.1551,-0.0755 0.0384,-0.0508 0.0575,-0.1104 0.0575,-0.1788 l 0.2062,-5.7289 c 0,-0.2062 0.0416,-0.3095 0.1247,-0.3095 h 0.1311 l 2.8057,6.0521 c 0.068,0.1602 0.18,0.2406 0.337,0.2406 h 1.437 c 0.064,0 0.117,-0.0238 0.158,-0.072 0.042,-0.0481 0.055,-0.1047 0.042,-0.1686" /><path
       id="path46"
       style="fill:#ed1c24;fill-opacity:1;fill-rule:evenodd;stroke:none"
       d="m 44.3245,111.757 v -10.939 c 0,-0.441 0.1175,-0.514 0.4114,-0.8818 l 1.2919,-1.6295 h -6.2405 c 0.3376,0.5283 0.6902,1.0426 1.0571,1.5418 0.2644,0.4255 0.3817,0.5875 0.3817,1.0715 v 15.286 l -1.7618,2.717 h 6.4756 l 10.4842,-12.922 v 10.308 c 0,0.499 -0.0882,0.646 -0.3672,1.072 -0.3376,0.514 -0.7047,1.028 -1.0721,1.527 h 6.241 l -1.2924,-1.63 c -0.2934,-0.352 -0.3817,-0.44 -0.3817,-0.881 V 97.7926 c -2.379,0.3085 -4.596,0.8519 -6.5345,3.2594 z M 17.82,118.923 h 6.6518 l 5.5506,-15.301 4.7431,12.687 c 0.0877,0.499 0.0145,0.646 -0.1912,1.072 -0.2494,0.514 -0.5283,1.028 -0.8072,1.527 h 4.9626 c -0.2789,-1.028 -0.7194,-2.159 -1.0861,-3.216 l -6.417,-17.8261 c -1.7475,0.338 -3.686,0.9987 -5.198,2.3791 -1.1308,1.028 -1.5422,2.188 -2.1001,3.597 l -5.3594,13.568 c -0.2058,0.558 -0.4701,1.028 -0.7491,1.513" /><path
       id="path48"
       style="fill:#ed1c24;fill-opacity:1;fill-rule:evenodd;stroke:none"
       d="m 130.104,113.028 v -2.861 c 0,-0.713 0.224,-1.196 0.664,-1.448 v -0.065 h -4.15 v 0.065 c 0.417,0.238 0.633,0.713 0.633,1.426 v 7.005 c 0,0.425 -0.043,0.764 -0.115,1.002 -0.078,0.244 -0.253,0.461 -0.518,0.648 v 0.029 h 5.037 c 0.561,0 1.066,-0.101 1.512,-0.31 0.448,-0.209 0.801,-0.511 1.06,-0.929 0.137,-0.202 0.23,-0.433 0.296,-0.685 0.071,-0.245 0.107,-0.519 0.107,-0.8 0,-0.382 -0.122,-0.792 -0.374,-1.247 -0.245,-0.446 -0.721,-0.85 -1.434,-1.196 l 1.996,-3.365 c 0.475,-0.728 0.908,-1.246 1.297,-1.556 l -1.751,-0.13 -0.439,-0.015 h -0.411 c -0.397,0 -0.707,0.065 -0.937,0.202 -0.224,0.13 -0.439,0.389 -0.634,0.771 z m 0,0.814 c 0.325,0.051 0.614,0.166 0.859,0.332 0.252,0.173 0.446,0.403 0.591,0.684 0.072,0.137 0.122,0.274 0.165,0.418 0.037,0.145 0.051,0.296 0.051,0.447 0,0.468 -0.123,0.858 -0.382,1.175 -0.253,0.31 -0.641,0.468 -1.161,0.468 h -0.123 z m -11.565,0.109 c 0,-0.325 0.037,-0.663 0.115,-1.009 0.058,-0.245 0.144,-0.555 0.274,-0.93 0.203,-0.591 0.498,-1.081 0.887,-1.456 0.382,-0.381 0.857,-0.569 1.419,-0.569 0.728,0 1.268,0.288 1.615,0.865 0.345,0.576 0.526,1.311 0.526,2.212 0,0.231 -0.029,0.605 -0.072,1.11 -0.051,0.375 -0.123,0.721 -0.21,1.031 -0.086,0.323 -0.187,0.605 -0.302,0.85 -0.217,0.49 -0.505,0.857 -0.879,1.102 -0.368,0.253 -0.807,0.375 -1.304,0.375 -0.231,0 -0.448,-0.043 -0.649,-0.13 -0.195,-0.079 -0.382,-0.202 -0.547,-0.36 -0.304,-0.288 -0.528,-0.663 -0.663,-1.117 -0.138,-0.454 -0.21,-0.951 -0.21,-1.485 z m -2.919,0.028 c 0,0.454 0.066,0.901 0.189,1.334 0.128,0.425 0.308,0.843 0.555,1.246 0.454,0.771 1.109,1.384 1.959,1.837 0.857,0.455 1.845,0.678 2.983,0.678 0.462,0 0.902,-0.05 1.298,-0.166 0.403,-0.115 0.799,-0.288 1.202,-0.519 0.75,-0.432 1.341,-1.044 1.773,-1.837 0.224,-0.418 0.396,-0.85 0.519,-1.297 0.116,-0.454 0.173,-0.944 0.173,-1.47 0,-0.721 -0.158,-1.463 -0.475,-2.227 -0.318,-0.757 -0.772,-1.405 -1.362,-1.924 l 0.734,-0.706 c 0.296,-0.281 0.606,-0.54 0.938,-0.786 0.331,-0.245 0.699,-0.454 1.102,-0.634 0.404,-0.187 0.829,-0.295 1.261,-0.331 -0.382,-0.317 -0.793,-0.562 -1.218,-0.735 -0.432,-0.173 -0.879,-0.252 -1.348,-0.252 -0.396,0 -0.799,0.079 -1.203,0.252 -0.411,0.166 -0.791,0.374 -1.153,0.619 -0.382,0.26 -0.727,0.526 -1.037,0.779 l -0.822,0.691 c -0.057,0 -0.129,0 -0.224,-0.007 -0.092,-0.007 -0.201,-0.021 -0.33,-0.043 l -0.491,-0.043 c -0.943,0 -1.802,0.252 -2.572,0.742 -0.771,0.49 -1.376,1.16 -1.802,2.003 -0.209,0.418 -0.375,0.858 -0.482,1.326 -0.109,0.476 -0.167,0.959 -0.167,1.47" /><path
       id="path50"
       style="fill:#005aaa;fill-opacity:1;fill-rule:nonzero;stroke:none"
       d="m 63.757,101.456 v 14.109 c 0,0.873 -0.1002,1.531 -0.3005,1.977 -0.2004,0.446 -0.5526,0.857 -1.0563,1.232 v 0.061 h 9.2502 c 1.7681,0 3.1652,-0.309 4.193,-0.929 1.0278,-0.619 1.7264,-1.348 2.0972,-2.19 0.3693,-0.842 0.5547,-1.663 0.5547,-2.465 0,-3.286 -1.9166,-5.299 -5.7503,-6.039 l -1.9888,-0.183 c -0.5755,0.081 -0.9609,0.122 -1.1563,0.122 2.0555,0.852 3.0833,2.399 3.0833,4.642 0,2.679 -1.0945,4.018 -3.2836,4.018 v -13.64 c 0,-1.745 0.4779,-2.9816 1.4335,-3.7107 v -0.1219 h -8.4329 v 0.061 c 0.9045,0.5975 1.3568,1.6166 1.3568,3.0566" /><path
       id="path52"
       style="fill:#005aaa;fill-opacity:1;fill-rule:nonzero;stroke:none"
       d="m 83.5833,107.452 4.3271,0.003 -2.2187,6.209 z m -5.0624,-4.449 4.2712,12.109 c 0.2669,0.814 0.3996,1.43 0.3996,1.846 0,0.671 -0.3853,1.276 -1.1557,1.816 v 0.061 h 7.6935 l 6.135,-16.285 c 0.3501,-1.033 0.7018,-1.825 1.0566,-2.372 0.3549,-0.5468 0.8648,-1.1202 1.533,-1.7178 v -0.1214 h -9.5734 v 0.1214 c 0.8632,0.4763 1.2948,1.0686 1.2948,1.7778 0,0.435 -0.0815,0.881 -0.2462,1.337 l -0.9862,2.962 H 82.669 l -0.9256,-2.612 c -0.2062,-0.598 -0.35,-1.181 -0.4315,-1.748 0,-0.2938 0.0975,-0.5825 0.2925,-0.8658 0.195,-0.2839 0.4827,-0.5671 0.8632,-0.851 v -0.1214 h -6.4595 v 0.1214 c 0.6585,0.5468 1.1461,1.1397 1.4642,1.7778 0.155,0.324 0.3117,0.699 0.4715,1.124 0.1583,0.426 0.3517,0.973 0.5771,1.641" /><path
       id="path54"
       style="fill:#005aaa;fill-opacity:1;fill-rule:nonzero;stroke:none"
       d="m 102.054,107.652 -5.9673,8.858 c -0.3804,0.567 -0.7545,1.048 -1.1253,1.443 -0.3085,0.294 -0.6522,0.563 -1.0326,0.806 v 0.06 h 7.6312 l 4.671,-7.414 2.652,3.768 c 0.257,0.375 0.462,0.81 0.617,1.307 0.102,0.354 0.139,0.658 0.107,0.911 -0.061,0.568 -0.421,1.023 -1.079,1.368 v 0.06 h 7.246 l -7.817,-11.167 v -5.226 c 0,-0.223 0.008,-0.436 0.024,-0.639 0.015,-0.202 0.029,-0.379 0.038,-0.531 0.01,-0.203 0.082,-0.547 0.216,-1.033 0.155,-0.6487 0.545,-1.2361 1.172,-1.7627 v -0.1218 h -8.726 v 0.1218 c 0.916,0.4554 1.373,1.4331 1.373,2.9317 z" /></g></svg>